# xmcd CD database file
#
# Track frame offsets:
#	150
#	21773
#	38477
#	57538
#	75531
#	93093
#	112782
#	130804
#	144314
#	161292
#	175835
#
# Disc length: 2593 seconds
#
# Revision: 0
# Processed by: cddbd v1.5.2PL0 Copyright (c) Steve Scherf et al.
# Submitted via: jetAudio 7
#
DISCID=780a1f0b
DTITLE=Billy Currington - Little Bit of Everything
DYEAR=1900
DGENRE=Country
TTITLE0=Swimmin' in Sunshine
TTITLE1=Life and Love and the Meaning Of
TTITLE2=Every Reason Not to Go
TTITLE3=Don't
TTITLE4=People Are Crazy
TTITLE5=Everything
TTITLE6=Walk On
TTITLE7=No One Has Eyes Like You
TTITLE8=That's How Country Boys Roll
TTITLE9=I Shall Return
TTITLE10=Heal Me
EXTD=
EXTT0=
EXTT1=
EXTT2=
EXTT3=
EXTT4=
EXTT5=
EXTT6=
EXTT7=
EXTT8=
EXTT9=
EXTT10=
PLAYORDER=
